<svg width="26" height="26" viewBox="0 0 26 26" fill="none" xmlns="http://www.w3.org/2000/svg">
<g clip-path="url(#clip0_988_10)">
<path fill-rule="evenodd" clip-rule="evenodd" d="M22.75 7.3125V22.75C22.75 23.612 22.4076 24.4386 21.7981 25.0481C21.1886 25.6576 20.362 26 19.5 26V24.375C19.931 24.375 20.3443 24.2038 20.649 23.899C20.9538 23.5943 21.125 23.181 21.125 22.75V7.3125H17.875C17.2285 7.3125 16.6085 7.05569 16.1514 6.59857C15.6943 6.14145 15.4375 5.52146 15.4375 4.875V1.625H6.5C6.06902 1.625 5.6557 1.7962 5.35095 2.10095C5.0462 2.4057 4.875 2.81902 4.875 3.25V17.875H3.25V3.25C3.25 2.38805 3.59241 1.5614 4.2019 0.951903C4.8114 0.34241 5.63805 0 6.5 0L15.4375 0L22.75 7.3125ZM0 24.1166C0.00930261 24.3727 0.0720847 24.6239 0.18431 24.8543C0.296534 25.0846 0.455718 25.2889 0.651625 25.454C0.861792 25.6295 1.12071 25.766 1.42838 25.8635C1.88988 26.0097 2.09625 26.0114 2.509 26.0114C3.05825 26.0114 3.523 25.9258 3.90325 25.7546C4.28783 25.5824 4.58033 25.344 4.78075 25.0396C4.98568 24.7224 5.09146 24.3513 5.08462 23.9736C5.08462 23.6096 5.0115 23.3063 4.86525 23.0636C4.71658 22.8201 4.50641 22.62 4.25587 22.4835C3.96883 22.324 3.65927 22.209 3.33775 22.1422L2.32862 21.9082C2.09068 21.8631 1.86582 21.7654 1.6705 21.6222C1.59666 21.5649 1.5372 21.4911 1.49687 21.4068C1.45653 21.3224 1.43641 21.2299 1.43812 21.1364C1.43812 20.8829 1.53779 20.6749 1.73713 20.5124C1.93971 20.3477 2.21758 20.2654 2.57075 20.2654C2.80258 20.2654 3.003 20.3022 3.172 20.3759C3.3278 20.438 3.46493 20.5393 3.57013 20.67C3.67014 20.7906 3.73731 20.935 3.76512 21.0892H4.98387C4.96339 20.7586 4.85143 20.4402 4.6605 20.1695C4.45573 19.8773 4.17469 19.6468 3.848 19.5032C3.44918 19.3275 3.01613 19.2431 2.5805 19.2562C2.10383 19.2562 1.6835 19.3375 1.3195 19.5C0.954417 19.6614 0.668417 19.8895 0.4615 20.1841C0.255667 20.4799 0.15275 20.826 0.15275 21.2225C0.15275 21.5497 0.219375 21.8335 0.352625 22.074C0.485875 22.3145 0.676 22.5133 0.923 22.6704C1.17108 22.8253 1.46358 22.9407 1.8005 23.0165L2.80475 23.2505C3.14058 23.3296 3.39083 23.4341 3.5555 23.5641C3.63624 23.6258 3.70097 23.7059 3.74424 23.7979C3.78751 23.8898 3.80805 23.9907 3.80413 24.0922C3.80413 24.271 3.75808 24.4281 3.666 24.5635C3.56109 24.7069 3.41648 24.8165 3.25 24.8787C3.06908 24.9546 2.84538 24.9925 2.57888 24.9925C2.38821 24.9925 2.21487 24.9708 2.05887 24.9275C1.91481 24.8888 1.77849 24.8256 1.65588 24.7406C1.54782 24.6705 1.45531 24.5789 1.38403 24.4716C1.31276 24.3642 1.26425 24.2434 1.2415 24.1166H0ZM11.1767 26.5362L10.3529 25.3354C10.6389 25.0721 10.8561 24.7471 11.0045 24.3604C11.154 23.9725 11.2287 23.536 11.2287 23.0506V22.2365C11.2287 21.6342 11.1161 21.1104 10.8908 20.6651C10.6804 20.2339 10.3474 19.8744 9.93362 19.6316C9.51871 19.3879 9.022 19.266 8.4435 19.266C7.87258 19.266 7.3775 19.3879 6.95825 19.6316C6.54225 19.8732 6.22158 20.2177 5.99625 20.6651C5.7641 21.1557 5.65001 21.6939 5.66312 22.2365V23.049C5.66312 23.6492 5.77417 24.1719 5.99625 24.6171C6.22158 25.0613 6.54225 25.4058 6.95825 25.6506C7.41261 25.9004 7.92519 26.0249 8.4435 26.0114C8.77537 26.0129 9.10507 25.958 9.4185 25.8489L9.89625 26.5346L11.1767 26.5362ZM6.92575 23.075V22.2267C6.92575 21.827 6.9875 21.4857 7.111 21.203C7.22045 20.9407 7.40397 20.7159 7.63913 20.5562C7.87976 20.4049 8.15928 20.327 8.4435 20.332C8.7555 20.332 9.02362 20.4067 9.24787 20.5562C9.48303 20.7159 9.66655 20.9407 9.776 21.203C9.90058 21.4857 9.96288 21.827 9.96288 22.2267V23.075C9.96288 23.3415 9.93417 23.5825 9.87675 23.7981C9.81933 24.0105 9.73537 24.1946 9.62487 24.3506L9.45262 24.1231L9.282 23.8842H8.09088L8.82375 24.9405C8.69485 24.9949 8.55574 25.021 8.41587 25.0169C8.13418 25.0179 7.8586 24.9347 7.6245 24.778C7.39088 24.6145 7.21013 24.3863 7.1045 24.1215C6.97782 23.7875 6.91711 23.4321 6.92575 23.075ZM13.403 24.7926H16.159V25.8879H12.1176V19.3895H13.4014L13.403 24.7926Z" fill="#464646"/>
<mask id="mask0_988_10" style="mask-type:luminance" maskUnits="userSpaceOnUse" x="-5" y="-16" width="36" height="59">
<path d="M30.875 -15.5002H-4.875V42.2498H30.875V-15.5002Z" fill="white"/>
</mask>
<g mask="url(#mask0_988_10)">
</g>
</g>
<defs>
<clipPath id="clip0_988_10">
<rect width="26" height="26" fill="white"/>
</clipPath>
</defs>
</svg>
