<svg width="237" height="213" viewBox="0 0 237 213" fill="none" xmlns="http://www.w3.org/2000/svg">
<g clip-path="url(#clip0_56_109)">
<path d="M234.839 81.3312C234.754 81.3312 234.671 81.3052 234.601 81.2567L119.651 1.20208C119.301 0.959592 118.886 0.830003 118.46 0.830728C118.035 0.831454 117.619 0.962459 117.27 1.20614L3.1481 81.2559C3.05783 81.3192 2.94612 81.344 2.83752 81.325C2.72892 81.3059 2.63234 81.2445 2.56903 81.1542C2.50572 81.064 2.48085 80.9522 2.49991 80.8437C2.51897 80.7351 2.58039 80.6385 2.67066 80.5752L116.793 0.525439C117.282 0.18434 117.863 0.000983258 118.459 3.94346e-06C119.055 -0.000975371 119.637 0.180468 120.126 0.519959L235.077 80.5743C235.149 80.6249 235.204 80.6974 235.232 80.7812C235.261 80.8649 235.262 80.9556 235.235 81.0401C235.209 81.1245 235.156 81.1983 235.085 81.2506C235.013 81.303 234.927 81.3312 234.839 81.3311L234.839 81.3312Z" fill="#3F3D56"/>
<path d="M9.66943 84.1686L118.573 3.45752L228.303 89.9116L124.184 151.635L67.6568 138.75L9.66943 84.1686Z" fill="#E6E6E6"/>
<path d="M72.4283 189.759H18.6271C18.2968 189.759 17.9696 189.694 17.6642 189.568C17.3589 189.442 17.0814 189.257 16.8477 189.023C16.614 188.79 16.4285 188.513 16.302 188.208C16.1755 187.902 16.1104 187.575 16.1104 187.245C16.1104 186.915 16.1755 186.588 16.302 186.282C16.4285 185.977 16.614 185.7 16.8477 185.467C17.0814 185.233 17.3589 185.048 17.6642 184.922C17.9696 184.796 18.2968 184.731 18.6271 184.731H72.4283C72.7587 184.731 73.0859 184.796 73.3912 184.922C73.6965 185.048 73.974 185.233 74.2077 185.467C74.4415 185.7 74.6269 185.977 74.7534 186.282C74.88 186.588 74.9451 186.915 74.9451 187.245C74.9451 187.575 74.88 187.902 74.7534 188.208C74.6269 188.513 74.4415 188.79 74.2077 189.023C73.974 189.257 73.6965 189.442 73.3912 189.568C73.0859 189.694 72.7587 189.759 72.4283 189.759Z" fill="#264DE4"/>
<path d="M37.9298 178.952H18.6271C18.2968 178.952 17.9696 178.888 17.6642 178.762C17.3589 178.635 17.0814 178.45 16.8477 178.217C16.614 177.983 16.4285 177.706 16.302 177.401C16.1755 177.096 16.1104 176.769 16.1104 176.438C16.1104 176.108 16.1755 175.781 16.302 175.476C16.4285 175.171 16.614 174.893 16.8477 174.66C17.0814 174.426 17.3589 174.241 17.6642 174.115C17.9696 173.989 18.2968 173.924 18.6271 173.925H37.9298C38.2602 173.924 38.5874 173.989 38.8927 174.115C39.198 174.241 39.4755 174.426 39.7092 174.66C39.943 174.893 40.1284 175.171 40.2549 175.476C40.3815 175.781 40.4466 176.108 40.4466 176.438C40.4466 176.769 40.3815 177.096 40.2549 177.401C40.1284 177.706 39.943 177.983 39.7092 178.217C39.4755 178.45 39.198 178.635 38.8927 178.762C38.5874 178.888 38.2602 178.952 37.9298 178.952Z" fill="#264DE4"/>
<path d="M120.105 129.124C119.696 129.124 119.291 129.045 118.912 128.89L51.748 101.022V13.7889C51.7489 13.0175 52.0558 12.278 52.6012 11.7326C53.1466 11.1871 53.8862 10.8803 54.6576 10.8794H183.507C184.279 10.8803 185.018 11.1871 185.564 11.7326C186.109 12.278 186.416 13.0175 186.417 13.7889V101.083L186.291 101.137L121.334 128.877C120.945 129.04 120.527 129.124 120.105 129.124Z" fill="white"/>
<path d="M120.105 129.331C119.669 129.332 119.237 129.247 118.833 129.083L51.54 101.161V13.7887C51.541 12.9622 51.8697 12.1699 52.4541 11.5855C53.0385 11.0011 53.8309 10.6723 54.6574 10.6714H183.507C184.334 10.6723 185.126 11.0011 185.71 11.5855C186.295 12.1699 186.624 12.9622 186.624 13.7887V101.22L121.415 129.068C121 129.242 120.555 129.332 120.105 129.331ZM52.3713 100.605L119.15 128.314C119.773 128.567 120.47 128.563 121.09 128.302L185.793 100.671V13.7887C185.793 13.1826 185.551 12.6016 185.123 12.173C184.694 11.7445 184.113 11.5034 183.507 11.5027H54.6574C54.0513 11.5034 53.4703 11.7445 53.0417 12.173C52.6131 12.6016 52.3721 13.1826 52.3713 13.7887L52.3713 100.605Z" fill="#3F3D56"/>
<path d="M234.008 80.5H233.925L186.209 100.875L120.924 128.752C120.668 128.859 120.395 128.915 120.118 128.917C119.841 128.918 119.567 128.865 119.311 128.76L51.9556 100.817L3.06741 80.5333L2.99272 80.5H2.90951C2.13812 80.5009 1.39857 80.8077 0.853119 81.3531C0.307665 81.8986 0.000855916 82.6381 0 83.4095V209.765C0.000857014 210.537 0.307665 211.276 0.853119 211.822C1.39857 212.367 2.13812 212.674 2.90951 212.675H234.008C234.779 212.674 235.519 212.367 236.064 211.822C236.61 211.276 236.917 210.537 236.917 209.765V83.4095C236.917 82.6381 236.61 81.8986 236.064 81.3531C235.519 80.8077 234.779 80.5009 234.008 80.5ZM236.086 209.765C236.086 210.317 235.867 210.845 235.477 211.235C235.087 211.624 234.559 211.843 234.008 211.844H2.90951C2.3584 211.843 1.82993 211.624 1.44023 211.235C1.05054 210.845 0.831509 210.317 0.831289 209.765V83.4095C0.832043 82.8721 1.04051 82.3557 1.4131 81.9684C1.78569 81.5811 2.29357 81.3528 2.83056 81.3313L51.9556 101.714L118.991 129.529C119.716 129.825 120.53 129.82 121.252 129.517L186.209 101.777L234.091 81.3313C234.627 81.3544 235.134 81.5834 235.505 81.9704C235.877 82.3575 236.085 82.8729 236.086 83.4095V209.765Z" fill="#3F3D56"/>
<path d="M107.578 96.5988C105.551 96.4075 103.641 95.5621 102.136 94.1902L102.043 94.1051L82.4336 75.858C81.5255 75.0124 80.7928 73.9962 80.2774 72.8674C79.7621 71.7386 79.4741 70.5194 79.4299 69.2794C79.3857 68.0393 79.5862 66.8027 80.02 65.6401C80.4537 64.4775 81.1122 63.4118 81.9578 62.5037C82.8034 61.5956 83.8196 60.8629 84.9483 60.3475C86.0771 59.8322 87.2963 59.5442 88.5364 59.5C89.7765 59.4558 91.0131 59.6563 92.1757 60.09C93.3382 60.5238 94.404 61.1822 95.3121 62.0279L108.012 73.8627L144.486 34.7225C145.332 33.8147 146.348 33.0824 147.477 32.5674C148.606 32.0524 149.826 31.7649 151.066 31.7211C152.306 31.6774 153.542 31.8784 154.705 32.3125C155.867 32.7467 156.933 33.4056 157.84 34.2516L157.613 34.5057L157.845 34.256C159.676 35.966 160.754 38.3323 160.842 40.8359C160.93 43.3395 160.022 45.7759 158.316 47.6105L115.414 93.6488C114.422 94.7093 113.2 95.5272 111.841 96.0388C110.482 96.5504 109.023 96.742 107.578 96.5988Z" fill="#264DE4"/>
</g>
<defs>
<clipPath id="clip0_56_109">
<rect width="236.917" height="212.675" fill="white"/>
</clipPath>
</defs>
</svg>
