<svg width="236" height="212" viewBox="0 0 236 212" fill="none" xmlns="http://www.w3.org/2000/svg">
<path d="M233.929 81.0731C233.845 81.0731 233.762 81.0472 233.693 80.9988L119.188 1.19826C118.839 0.956547 118.425 0.827369 118.001 0.828093C117.577 0.828816 117.164 0.959405 116.816 1.20231L3.1358 80.998C3.04588 81.0611 2.9346 81.0859 2.82642 81.0669C2.71825 81.0479 2.62204 80.9867 2.55897 80.8967C2.4959 80.8067 2.47114 80.6954 2.49012 80.5871C2.50911 80.4789 2.57029 80.3826 2.66021 80.3195L116.341 0.523772C116.827 0.183755 117.406 0.000980138 118 3.93095e-06C118.594 -0.000972276 119.173 0.179896 119.661 0.518309L234.166 80.3187C234.239 80.3691 234.293 80.4413 234.321 80.5248C234.35 80.6083 234.351 80.6988 234.325 80.7829C234.298 80.8671 234.245 80.9406 234.174 80.9928C234.103 81.045 234.017 81.0731 233.929 81.0731L233.929 81.0731Z" fill="#3F3D56"/>
<path d="M9.63232 83.9018L118.114 3.44678L227.42 89.6265L123.704 151.154L67.3952 138.31L9.63232 83.9018Z" fill="#E6E6E6"/>
<path d="M72.1477 189.157H18.5549C18.2258 189.157 17.8999 189.093 17.5957 188.967C17.2916 188.841 17.0152 188.657 16.7823 188.424C16.5495 188.191 16.3648 187.915 16.2388 187.611C16.1127 187.306 16.0479 186.98 16.0479 186.651C16.0479 186.322 16.1127 185.996 16.2388 185.691C16.3648 185.387 16.5495 185.111 16.7823 184.878C17.0152 184.646 17.2916 184.461 17.5957 184.335C17.8999 184.21 18.2258 184.145 18.5549 184.146H72.1477C72.4768 184.145 72.8027 184.21 73.1069 184.335C73.411 184.461 73.6874 184.646 73.9203 184.878C74.1531 185.111 74.3378 185.387 74.4639 185.691C74.5899 185.996 74.6548 186.322 74.6548 186.651C74.6548 186.98 74.5899 187.306 74.4639 187.611C74.3378 187.915 74.1531 188.191 73.9203 188.424C73.6874 188.657 73.411 188.841 73.1069 188.967C72.8027 189.093 72.4768 189.157 72.1477 189.157Z" fill="#FF9162"/>
<path d="M37.7828 178.384H18.5549C18.2258 178.385 17.8999 178.32 17.5957 178.194C17.2916 178.069 17.0152 177.884 16.7823 177.651C16.5495 177.419 16.3648 177.142 16.2388 176.838C16.1127 176.534 16.0479 176.208 16.0479 175.879C16.0479 175.549 16.1127 175.223 16.2388 174.919C16.3648 174.615 16.5495 174.338 16.7823 174.106C17.0152 173.873 17.2916 173.689 17.5957 173.563C17.8999 173.437 18.2258 173.373 18.5549 173.373H37.7828C38.1119 173.373 38.4378 173.437 38.742 173.563C39.0461 173.689 39.3225 173.873 39.5554 174.106C39.7882 174.338 39.9729 174.615 40.099 174.919C40.225 175.223 40.2899 175.549 40.2899 175.879C40.2899 176.208 40.225 176.534 40.099 176.838C39.9729 177.142 39.7882 177.419 39.5554 177.651C39.3225 177.884 39.0461 178.069 38.742 178.194C38.4378 178.32 38.1119 178.385 37.7828 178.384Z" fill="#FF9162"/>
<path d="M119.64 128.714C119.232 128.715 118.829 128.635 118.452 128.481L51.5474 100.701V13.745C51.5483 12.9761 51.8539 12.2389 52.3972 11.6952C52.9405 11.1515 53.6772 10.8456 54.4456 10.8447H182.796C183.565 10.8456 184.302 11.1515 184.845 11.6952C185.388 12.2389 185.694 12.9761 185.695 13.745V100.762L185.569 100.816L120.863 128.468C120.476 128.631 120.06 128.714 119.64 128.714Z" fill="white"/>
<path d="M119.64 128.921C119.205 128.922 118.775 128.837 118.373 128.673L51.3403 100.84V13.7451C51.3413 12.9213 51.6687 12.1314 52.2509 11.5489C52.833 10.9663 53.6223 10.6386 54.4456 10.6377H182.796C183.62 10.6386 184.409 10.9663 184.991 11.5489C185.573 12.1314 185.901 12.9213 185.902 13.7451V100.899L120.945 128.658C120.532 128.832 120.088 128.922 119.64 128.921ZM52.1684 100.286L118.689 127.907C119.309 128.159 120.004 128.155 120.621 127.896L185.074 100.352V13.7451C185.073 13.141 184.833 12.5618 184.406 12.1346C183.979 11.7074 183.4 11.4671 182.796 11.4663H54.4456C53.8419 11.4671 53.2631 11.7074 52.8362 12.1346C52.4093 12.5618 52.1691 13.141 52.1684 13.7451L52.1684 100.286Z" fill="#3F3D56"/>
<path d="M233.102 80.2446H233.019L185.488 100.555L120.455 128.344C120.201 128.451 119.929 128.506 119.653 128.508C119.377 128.509 119.104 128.456 118.849 128.352L51.7544 100.497L3.05553 80.2778L2.98113 80.2446H2.89825C2.12984 80.2455 1.39316 80.5513 0.849816 81.095C0.306474 81.6388 0.000852602 82.376 0 83.1449V209.1C0.000853696 209.869 0.306474 210.606 0.849816 211.15C1.39316 211.693 2.12985 211.999 2.89825 212H233.102C233.87 211.999 234.607 211.693 235.15 211.15C235.694 210.606 235.999 209.869 236 209.1V83.1449C235.999 82.376 235.694 81.6388 235.15 81.095C234.607 80.5513 233.87 80.2455 233.102 80.2446ZM235.172 209.1C235.172 209.649 234.954 210.176 234.565 210.565C234.177 210.953 233.651 211.171 233.102 211.172H2.89825C2.34927 211.171 1.82284 210.953 1.43466 210.565C1.04647 210.176 0.82829 209.649 0.82807 209.1V83.1449C0.828821 82.6092 1.03648 82.0945 1.40763 81.7084C1.77878 81.3223 2.28469 81.0948 2.8196 81.0733L51.7544 101.392L118.53 129.118C119.253 129.413 120.063 129.408 120.782 129.106L185.488 101.454L233.185 81.0733C233.719 81.0964 234.223 81.3246 234.593 81.7104C234.963 82.0963 235.171 82.61 235.172 83.1449V209.1Z" fill="#3F3D56"/>
<path d="M152.128 67.4601C153.698 48.4838 139.598 31.8273 120.635 30.2568C101.672 28.6862 85.0268 42.7964 83.4574 61.7727C81.888 80.749 95.9883 97.4055 114.951 98.976C133.914 100.547 150.559 86.4364 152.128 67.4601Z" fill="#FF9162"/>
<path d="M126.843 50.2509L117.793 59.3074L108.743 50.2509C107.278 48.7849 104.903 48.7849 103.438 50.2509C101.973 51.7169 101.973 54.0938 103.438 55.5599L112.488 64.6164L103.438 73.6729C101.974 75.1403 101.976 77.5172 103.443 78.9818C104.907 80.4446 107.278 80.4446 108.743 78.9818L117.793 69.9253L126.843 78.9818C128.31 80.4465 130.685 80.4443 132.148 78.9769C133.61 77.5114 133.61 75.1383 132.148 73.6729L123.098 64.6164L132.148 55.5599C133.613 54.0938 133.613 51.7169 132.148 50.2509C130.683 48.7849 128.308 48.7849 126.843 50.2509Z" fill="white"/>
</svg>
