<svg width="125" height="90" viewBox="0 0 125 90" fill="none" xmlns="http://www.w3.org/2000/svg">
<path d="M8.71217 0H76.8379C79.1477 0.00268908 81.3622 0.952585 82.9954 2.64129C84.6287 4.33 85.5474 6.6196 85.55 9.00778V47.5424C85.5474 49.9306 84.6287 52.2202 82.9954 53.9089C81.3622 55.5976 79.1477 56.5475 76.8379 56.5502H8.71217C6.40235 56.5475 4.18789 55.5976 2.5546 53.9089C0.921314 52.2202 0.00259557 49.9306 0 47.5424V9.00778C0.00259508 6.6196 0.921315 4.33 2.5546 2.64129C4.18789 0.952585 6.40235 0.00268908 8.71217 0V0Z" fill="#AAAAAA"/>
<path d="M8.71188 2.59326H76.8377C78.4825 2.59517 80.0595 3.27161 81.2226 4.47417C82.3857 5.67674 83.04 7.30722 83.0418 9.0079V47.5425C83.04 49.2432 82.3857 50.8737 81.2226 52.0763C80.0595 53.2788 78.4825 53.9553 76.8377 53.9572H8.71188C7.06702 53.9552 5.49006 53.2788 4.32697 52.0762C3.16389 50.8737 2.50966 49.2432 2.50781 47.5425V9.0079C2.50965 7.30723 3.16388 5.67676 4.32697 4.4742C5.49006 3.27163 7.06701 2.59519 8.71188 2.59326Z" fill="#ECECEC"/>
<path d="M9.37675 70.3467C9.17117 70.3461 8.96774 70.3036 8.7781 70.2215C8.49504 70.1039 8.25292 69.9007 8.08343 69.6384C7.91395 69.3762 7.82499 69.0671 7.82821 68.7517V55.4305L25.005 54.833L10.455 69.8767C10.3143 70.0249 10.1466 70.1428 9.96147 70.2235C9.77637 70.3042 9.57762 70.3461 9.37675 70.3467V70.3467Z" fill="#AAAAAA"/>
<path d="M68.3055 12.1787H17.0784C15.0274 12.1787 13.3647 13.8978 13.3647 16.0184V16.0184C13.3647 18.1389 15.0274 19.858 17.0784 19.858H68.3055C70.3565 19.858 72.0191 18.1389 72.0191 16.0184C72.0191 13.8978 70.3565 12.1787 68.3055 12.1787Z" fill="#AAAAAA"/>
<path d="M68.3885 24.4355H17.1614C15.1104 24.4355 13.4478 26.1546 13.4478 28.2752V28.2752C13.4478 30.3958 15.1104 32.1148 17.1614 32.1148H68.3885C70.4395 32.1148 72.1021 30.3958 72.1021 28.2752C72.1021 26.1546 70.4395 24.4355 68.3885 24.4355Z" fill="#AAAAAA"/>
<path d="M68.4715 36.6924H17.2444C15.1934 36.6924 13.5308 38.4114 13.5308 40.532V40.532C13.5308 42.6526 15.1934 44.3717 17.2444 44.3717H68.4715C70.5225 44.3717 72.1852 42.6526 72.1852 40.532C72.1852 38.4114 70.5225 36.6924 68.4715 36.6924Z" fill="#AAAAAA"/>
<path d="M116.288 19.6533H48.1624C45.8525 19.656 43.6381 20.6059 42.0048 22.2946C40.3715 23.9833 39.4528 26.2729 39.4502 28.6611V67.1958C39.4528 69.5839 40.3715 71.8735 42.0048 73.5622C43.6381 75.2509 45.8525 76.2008 48.1624 76.2035H116.288C118.598 76.2008 120.812 75.2509 122.446 73.5622C124.079 71.8735 124.998 69.5839 125 67.1958V28.6611C124.998 26.2729 124.079 23.9833 122.446 22.2946C120.812 20.6059 118.598 19.656 116.288 19.6533V19.6533Z" fill="#AAAAAA"/>
<path d="M116.288 22.2466H48.1622C46.5173 22.2485 44.9403 22.9249 43.7772 24.1275C42.6141 25.3301 41.9599 26.9605 41.958 28.6612V67.1959C41.9599 68.8966 42.6141 70.527 43.7772 71.7296C44.9403 72.9322 46.5173 73.6086 48.1622 73.6105H116.288C117.933 73.6086 119.51 72.9321 120.673 71.7296C121.836 70.527 122.49 68.8965 122.492 67.1959V28.6612C122.49 26.9605 121.836 25.3301 120.673 24.1275C119.51 22.925 117.933 22.2485 116.288 22.2466Z" fill="#ECECEC"/>
<path d="M111.105 89.53L96.5552 74.4863L113.732 75.0839V88.405C113.735 88.7204 113.646 89.0295 113.477 89.2917C113.307 89.554 113.065 89.7572 112.782 89.8748C112.592 89.9569 112.389 89.9994 112.183 90C111.983 89.9994 111.784 89.9575 111.599 89.8768C111.414 89.7961 111.246 89.6782 111.105 89.53V89.53Z" fill="#AAAAAA"/>
<path d="M67.199 52.7951C69.7985 52.7951 71.9059 50.6163 71.9059 47.9285C71.9059 45.2408 69.7985 43.062 67.199 43.062C64.5995 43.062 62.4922 45.2408 62.4922 47.9285C62.4922 50.6163 64.5995 52.7951 67.199 52.7951Z" fill="#264DE4"/>
<path d="M82.2249 52.7951C84.8244 52.7951 86.9317 50.6163 86.9317 47.9285C86.9317 45.2408 84.8244 43.062 82.2249 43.062C79.6254 43.062 77.5181 45.2408 77.5181 47.9285C77.5181 50.6163 79.6254 52.7951 82.2249 52.7951Z" fill="#264DE4"/>
<path d="M97.2508 52.7951C99.8503 52.7951 101.958 50.6163 101.958 47.9285C101.958 45.2408 99.8503 43.062 97.2508 43.062C94.6513 43.062 92.5439 45.2408 92.5439 47.9285C92.5439 50.6163 94.6513 52.7951 97.2508 52.7951Z" fill="#264DE4"/>
</svg>
