<svg width="459" height="469" viewBox="0 0 459 469" fill="none" xmlns="http://www.w3.org/2000/svg">
<path d="M229.759 274.278C277.448 274.278 316.108 235.619 316.108 187.929C316.108 140.24 277.448 101.58 229.759 101.58C182.07 101.58 143.41 140.24 143.41 187.929C143.41 235.619 182.07 274.278 229.759 274.278Z" fill="#9E6F76"/>
<path d="M158 293.522L176.15 247.889L269.925 234L280 335.016L185.217 337L158 293.522Z" fill="#9E6F76"/>
<path d="M316.945 203.861C315.824 208.351 313.559 219.041 310.021 219.094C307.131 219.136 304.364 172.759 307.251 165.088C310.568 156.275 301.852 145.127 295.287 139.405C283.483 129.115 257.28 151.209 230.636 141.201C229.93 140.936 230.07 140.966 221.657 137.609C195.767 127.279 194.406 126.981 192.923 126.834C180.372 125.592 165.056 135.862 158.801 148.384C152.3 161.401 157.732 172.565 151.618 204.056C150.905 207.727 149.787 212.958 148.026 213.035C144.808 213.176 141.666 195.987 140.843 191.485C137.395 172.623 134.07 154.438 140.843 134.017C141.581 131.79 146.134 123.523 155.21 107.079C168.284 83.3909 174.86 71.5021 176.76 69.366C190.389 54.0397 215.196 40.0586 236.024 46.0197C246.551 49.0327 244.663 53.8766 257.574 58.5908C280.582 66.9913 300.579 56.7177 304.266 63.9784C306.22 67.8244 300.754 70.9952 300.675 78.3453C300.539 90.9567 316.489 94.601 325.817 107.079C330.831 113.787 339.414 113.859 316.945 203.861L316.945 203.861V203.861Z" fill="#2F2E41"/>
<path d="M424 350.205C420.564 353.302 417 356.335 413.308 359.297C363.708 399.086 297.759 421 227.614 421C166.986 421 109.498 404.63 62.9879 374.495C62.9582 374.48 62.9385 374.463 62.9091 374.439C56.7387 370.448 50.7657 366.203 45 361.72C45.1085 361.024 49.44 343.275 49.5682 342.594C50.3779 338 47.0635 350.68 48.0702 346.649C56.314 313.607 164.785 278.919 167.608 278.015C167.647 278.008 167.667 278 167.667 278C167.667 278 181.627 319.278 241.445 318.748C282.19 318.391 274.292 278 274.292 278C274.292 278 274.785 278.079 275.713 278.237C287.481 280.241 369.187 294.639 401.421 314.289C411.244 320.276 418.293 333.027 423.358 348.233C423.575 348.882 423.783 349.548 424 350.205Z" fill="#264DE4"/>
<path d="M391.781 67.2195C348.435 23.8739 290.801 0 229.5 0C168.199 0 110.566 23.8739 67.2193 67.2195C23.8733 110.566 0 168.2 0 229.5C0 285.452 19.8872 338.349 56.3311 380.116C59.8081 384.111 63.4404 388.002 67.2193 391.781C68.108 392.669 69.0053 393.558 69.9112 394.421C74.95 399.305 80.1698 403.929 85.5622 408.277C85.5879 408.303 85.6052 408.321 85.6311 408.338C126.277 441.166 176.517 459 229.5 459C290.801 459 348.435 435.127 391.781 391.781C395.008 388.554 398.122 385.25 401.125 381.876C438.543 339.842 459 286.246 459 229.5C459 168.2 435.127 110.566 391.781 67.2195ZM400.564 379.728C393.774 387.45 386.474 394.714 378.709 401.453C363.982 414.265 347.589 425.205 329.911 433.919C323.707 436.982 317.349 439.769 310.843 442.263C285.572 451.96 258.144 457.274 229.5 457.274C201.856 457.274 175.352 452.323 150.823 443.263C140.754 439.553 131.022 435.145 121.678 430.097C120.306 429.355 118.943 428.605 117.589 427.837C110.462 423.799 103.568 419.39 96.9509 414.627C87.4689 407.829 78.5304 400.314 70.2217 392.169C65.5628 387.605 61.1109 382.851 56.8575 377.908C22.5101 338.013 1.72556 286.142 1.72556 229.5C1.72556 103.905 103.905 1.72556 229.5 1.72556C355.095 1.72556 457.274 103.905 457.274 229.5C457.274 287.013 435.852 339.608 400.564 379.728Z" fill="#264DE4"/>
<ellipse rx="96.5" ry="69" transform="matrix(1 0 0 -1 233.5 390)" fill="#264DE4"/>
<ellipse rx="103" ry="67.5" transform="matrix(1 0 0 -1 258 386.5)" fill="#264DE4"/>
<ellipse rx="79.6887" ry="66.6561" transform="matrix(0.713251 -0.700909 -0.700909 -0.713251 317.558 365.075)" fill="#264DE4"/>
<rect x="343" y="401.332" width="93" height="25" rx="12.5" transform="rotate(-45.5 343 401.332)" fill="#264DE4"/>
<rect x="347" y="399.332" width="72.6571" height="25" rx="12.5" transform="rotate(-45.5 347 399.332)" fill="#264DE4"/>
<rect x="336" y="406.823" width="72.6571" height="25" rx="12.5" transform="rotate(-45.5 336 406.823)" fill="#264DE4"/>
<rect x="95.9702" y="374.692" width="94.8721" height="35.8267" rx="17.9133" transform="rotate(28 95.9702 374.692)" fill="#264DE4"/>
<path d="M45.4817 345.8C50.6673 336.048 62.7773 332.345 72.53 337.531L121.862 363.761C131.127 368.688 134.645 380.192 129.718 389.457L128.687 391.397C123.761 400.662 112.256 404.179 102.991 399.253L52.7759 372.553C43.5108 367.627 39.9935 356.122 44.9198 346.857L45.4817 345.8Z" fill="#264DE4"/>
<rect x="61.6191" y="336" width="47.1333" height="40.4674" rx="19" transform="rotate(29 61.6191 336)" fill="#264DE4"/>
<rect x="68.353" y="322" width="47.1333" height="42.8697" rx="19" transform="rotate(47 68.353 322)" fill="#264DE4"/>
<rect x="80.8667" y="346.653" width="58.4475" height="40.4674" rx="16" transform="rotate(45 80.8667 346.653)" fill="#264DE4"/>
<rect x="112.102" y="381" width="58.4475" height="40.4674" rx="16" transform="rotate(25 112.102 381)" fill="#264DE4"/>
<rect x="127.102" y="389" width="58.4475" height="40.4674" rx="16" transform="rotate(25 127.102 389)" fill="#264DE4"/>
<rect x="143.068" y="409" width="85.7017" height="32.9891" rx="16.4945" transform="rotate(11.5 143.068 409)" fill="#264DE4"/>
<rect x="154.577" y="414" width="69.963" height="32.9891" rx="16.4945" transform="rotate(11.5 154.577 414)" fill="#264DE4"/>
</svg>
